<?xml version="1.0" encoding="utf-8"?>
<!-- Generator: Adobe Illustrator 26.5.0, SVG Export Plug-In . SVG Version: 6.00 Build 0)  -->
<svg version="1.1" id="Layer_1" xmlns:serif="http://www.serif.com/"
	 xmlns="http://www.w3.org/2000/svg" xmlns:xlink="http://www.w3.org/1999/xlink" x="0px" y="0px" viewBox="0 0 200 200"
	 style="enable-background:new 0 0 200 200;" xml:space="preserve">
<style type="text/css">
	.st0{fill-rule:evenodd;clip-rule:evenodd;fill:#260000;}
</style>
<path id="Cosmos-Sigil" serif:id="Cosmos Sigil" class="st0" d="M98.3,192.7c1.4-0.5,0.6-3.1,0.8-4.8c-0.1-1.9,0.3-3.4,0.4-5.3
	c-0.1-1.9,0.3-3.4,0.3-5.3c0.4-1.5,2.5-1.2,3.3-2.3c1-0.8,2-1.7,2.7-2.9c0.7-1.1,1.3-2.4,1.6-4c0.2-1.7,0-3.5-0.6-4.8
	c-0.6-1.2-1.3-2.5-2.2-3.3c-0.9-0.9-1.9-1.8-3.6-2c-1.7-0.3-3.5,0.1-4.5,0.8c-1.2,0.6-2.1,1.6-3.1,2.6c-0.6,1.2-1.1,2.7-1.2,4.3
	c-0.3,1.8,0.5,3.2,1.3,4.1c1,0.9,1.6,2.2,3.6,2c2,0.1,3.1-0.6,4.2-1.4c0.9-0.9,1.6-2.2,2-3.5c0.7-1.1,0.7-3.6-0.2-4.4
	c-0.8-1.1-1.5-2.1-3.4-2.2c-1.9,0-2.8,0.9-3.7,1.9c-0.8,0.8-1,3.4-0.3,4.3c0.3,1.2,2.8,1.8,3.9,0.8c1.3-0.6,1.3-2.9,0.1-3.6
	c-1.7-1.4-2.2,0-0.7,1.2c-0.2,1.7-3.1,1.5-2.4-0.7c0.5-1.4,1.3-2.5,3-2.6c1.6,0.3,2.5,1.2,2.7,2.9c0.1,1.9-0.5,3.2-1.4,4.2
	c-0.7,1-2.5,1.6-4.1,1.2c-1.2-0.6-2.3-1.4-2.7-2.9c-0.6-1.5-0.3-3.4,0.4-4.5c0.8-1.1,1.7-2,3-2.6c1.1-0.8,3.3-0.9,4.2-0.1
	c1.3,0.6,2.2,1.5,3,2.6c0.6,1.2,1.6,2.5,1.1,4.3c-0.2,1.7-0.7,3-1.5,4.1c-0.7,1.1-1.8,2-3.1,2.5c-1.4,0.3-2.9,1-4.8,0.6
	c-1.7-0.1-2.8-0.9-3.7-1.9c-1-0.8-1.6-2.1-2.2-3.4c-0.6-1.1-0.4-3.8,0.1-4.7c0.6-1.3,1.3-2.4,2.3-3.3c1-0.8,2-1.7,3.1-2.4
	c1.2-0.7,2.6-1.2,4.5-1.1c2.1,0.6,3.2,0.8,0.9-0.4c-0.9-0.9-1.5-2.2-1.6-4c-0.2-1.9,2.2-1.8,3.6-1.5c1.5,0.4,2.6,1.2,3.8,1.9
	c1.3,0.5,2,1.8,2.8,2.7c0.9,0.9,1.5,2.3,1.9,3.7c0.4,1.4,0.9,2.8,0.8,4.8c-0.2,1.7-0.1,3.6-0.4,5.3c-0.1,1.7-0.8,3.1-1.2,4.3
	c-0.4,1.5-1.2,2.5-1.9,3.8c-0.7,1.2-1.4,2.3-2.4,3.1c-0.5,0.4-3.2,2.7-0.9,1.8c1.2-0.6,2.4-1.4,2.9-2.6c0.9-0.9,1.7-2.1,2.5-3.1
	c0.9-1,1.3-2.4,1.8-3.7c0.7-1.2,1.3-2.5,1.4-4.2c0.3-1.5,0.8-3,0.6-4.9c0-1.8-0.5-3.2-0.7-4.9c-0.2-1.6-0.9-2.8-1.4-4.2
	c-0.6-1.2-1.6-2.1-2.6-3c-1-0.7-2.1-1.7-3.2-2.2c-1.3-0.5-2.3-1.4-4-1.6c-1.4-0.4-3.4-0.3-2.8-2.8c0-1.8,0.1-3.8-0.1-5.5
	c0.4-1.5-0.1-3.8,0.4-5.3c1.6-0.6,3.3,0.3,5.1,0c1.9,0.1,3.2,0.6,5,0.6c1.8,0.2,3.1,0.7,4.4,1.2c1,0.1,3.9,1.4,3.5,0.6
	c-1.3-0.5-2.7-0.9-3.6-2c-1.1-0.6-1.3-2.3-2-3.6c-1.2-0.7-2.2,1.2-4,0.9c-1.3,0.5-3.5,0.3-5.2,0.3c-1.8,0-4.2,0.8-3.4-1.8
	c0.5-1.4,1.5-2.2,2.1-3.5c1.1-0.8,1.7-2,2.7-2.9c1-0.8,1.6-2.1,2.7-2.8c0.9-1,1.9-1.8,2.9-2.7c0.9-1,2-1.7,2.7-2.9
	c0.9-1,2.1-1.6,2.9-2.7c1-0.8,1.7-2.2,2.7-2.8c1.2-0.7,2-1.8,2.9-2.7c1.1-0.8,2-1.7,3.1-2.6c1.1-0.8,2-1.7,3.1-2.5
	c1.6-0.6,1.5-2.3,2.1-1.8c-0.8-1-1.9-1.8-3.1-2.6c-0.8-1-2-1.7-2.9-2.7c-1-0.8-1.7-2-2.9-2.7c-0.9-0.9-1.9-1.9-2.7-2.8l-2.8-2.8
	l-2.8-2.8c-0.9-0.9-1.8-1.9-2.9-2.7c-0.9-0.9-1.8-1.9-2.8-2.7c-0.8-1-1.6-2.1-2.8-2.8c-0.9-1-2-1.7-2.7-2.9
	c-0.7-1.2-0.8-2.9-1.1-4.6c-0.8-2.2,2.5-1.4,3.5-1.3c1.8,0.2,3.5,0.3,5,0.6c1.6-0.2,2.8,1.8,3.7,0.9c0.6-1.3,1.6-2.1,2.3-3.2
	c0.8-1,1.8-2,2.6-2.9c-0.7-0.1-2,1.4-3.3,1.6c-1.3,0.6-3.1,0.6-4.6,1.1c-1.3,0.5-3.2,0.5-5.1,0.4c-1.3-0.5-4.4,0.6-4.3-1.2
	c0.1-1.8-0.1-3.8,0.1-5.5c0.2-1.7,0-3.7,0.4-5.3c0.6-1.3,2.3-1.4,3.5-2.1c1.3-0.5,2.8-1,3.9-1.6c1.4-0.4,2.5-1.2,3.6-2
	c1.1-0.8,2.2-1.5,3-2.6c0.8-1.1,1.6-2.1,2.2-3.4c0.8-1,1.1-2.7,1.2-4.3c0.2-1.6,0.4-3.3,0.4-5.2c0.1-1.9-0.2-3.5-0.7-4.9
	c-0.4-1.4-1.2-2.5-2-3.6c-0.6-1.2-1.7-2.1-2.4-3.1c-0.8-1-2.4-1.3-3.6-2c-0.9-0.8-2.9-1-4.7-0.7c-0.5,0.6,2.9,0.5,3.5,1.2
	c1.3,0.5,2.5,1.3,3.4,2.1c1.1,0.9,1.8,2,2.6,3.1c0.7,1.2,1,2.8,1.3,4.3c0.5,1.5,0.2,3.6-0.1,5c-0.2,1.6-0.4,3.4-0.9,4.6
	c-0.4,1.5-1,2.7-1.8,3.9c-0.6,1.2-1.8,1.9-2.9,2.7c-1.1,0.8-2.3,1.4-3.7,1.9c-1.2,0.7-2.4,1.3-4.3,1.3c-1.9-0.1-0.7-3-0.1-3.6
	c0.8-1.1,2.5-1.3,3.5-2.1c1.2-0.7,2.1-1.7,2.8-2.8c0.7-1.1,1.5-2.2,1.8-3.7c0.5-1.5,0.1-3.4-0.1-5c-0.3-1.5-1.1-2.6-1.8-3.9
	c-0.9-0.9-1.5-2.2-2.9-2.7c-1-0.7-2.4-1.4-3.9-1.6c-1.3-0.5-0.9-2.8-1.3-4.4c0-1.8-0.2-3.5-0.2-5.3c-0.1-1.8,0.1-3.8-0.1-5.5
	c0.1-2.7-1.2-2.6-0.7,0.1c0.1,2-0.1,3.6-0.2,5.4c0,1.9-0.1,3.6-0.3,5.3c-0.4,1.5,0.2,3.9-1.2,4.4c-1.7,0.2-2.9,0.9-4.1,1.4
	c-1.2,0.7-2,1.7-2.9,2.7c-0.9,1-1.7,2.1-2.1,3.5c-0.4,1.4-0.3,3.4-0.4,5.2c0.3,1.6,0.7,3.2,1.5,4c0.8,1.1,1.6,2.2,2.7,2.9
	c1.1,0.8,2.6,1.2,3.8,1.8c1.1,0.6,1.8,2.5,1.4,3.7c-1.4,0.4-3.3-0.3-4.4-0.6c-1.2-0.7-2.5-1.2-3.6-2c-1-0.8-2.2-1.5-3-2.6
	c-0.9-1-1.6-2.1-2.3-3.3c-0.7-1.1-0.6-3.2-1.2-4.3c-0.4-1.4-0.3-3.7,0.1-5c0.4-1.4,0.5-3.3,1.3-4.3c0.8-1.1,1-2.7,1.8-3.7
	c0.9-0.9,1.5-2.3,2.6-2.9c1.1-0.8,2-1.7,3.4-2.2c-1.1-0.5-2.8,0.6-3.6,1.3c-1.2,0.6-2.2,1.5-3.1,2.4c-0.7,1.2-1.8,2-2.4,3.1
	c-0.6,1.2-1.5,2.3-2,3.6c-0.4,1.4-0.7,3-1,4.5c-0.2,1.7-0.2,3.8,0.1,5.3c0.2,1.6,1,2.8,1.4,4.1c0.5,1.4,1.4,2.4,2.2,3.4
	c0.9,1.1,2,1.8,3.1,2.6c1.3,0.7,2.2,1.6,3.5,2.1c1.5,0.4,2.6,1.3,3.9,1.7c1.2,0.7,2.9,0.8,3.5,2.1c0.5,1.3,0.3,3.2,0.2,4.9
	c0,1.8,0.1,3.9-0.1,5.5c0.2,2.2-2.3,1.3-3.9,1.4c-1.8-0.1-3.8,0.1-5.5-0.1c-1.6-0.2-3.1-0.6-4.4-1.2c-1.3-0.5-2.3-1.4-3.7-1.8
	c-1.2,0.4,1.9,1.3,1.9,2.2c1,0.9,1.7,2,2.3,3.3c0.5,1.7,1.3,3.2,1.6,0.7c1.1-0.7,2.9-0.9,4.8-0.8c1.7-0.1,3.4-0.4,5-0.2
	c2.5-0.2,1,2.1,1,3.6c-0.1,1.8-1.2,2.5-1.9,3.7c-0.8,1.1-1.7,2-2.7,2.9c-0.9,0.9-1.9,1.9-2.7,2.8c-1,0.9-1.7,2-2.9,2.7l-2.8,2.8
	c-0.8,1-2.1,1.6-2.8,2.8c-0.8,1.1-2.1,1.7-2.9,2.7c-1,0.9-2.1,1.6-3.1,2.6c-0.9,1-2.1,1.6-3,2.6c-1.1,0.8-2.1,1.6-3.1,2.5
	c-1.8,0.9-1.5,1.6,0.1,2.3c1.2,0.8,2,1.8,3.1,2.5c0.9,1,2.1,1.7,2.9,2.7c1,0.9,1.9,1.9,2.8,2.8c0.9,1,2,1.9,2.7,2.8l5.6,5.6
	c1,1,2,1.8,2.8,2.8c0.9,0.9,1.7,2.1,2.6,2.9c0.9,1,1.8,2,2.6,3c0.9,1.1,1.5,2.3,2.2,3.4c1.1,2.1-0.3,3.1-2.5,2.7
	c-1.6,0.2-3.7,0.2-5.4,0.1c-1.8,0-3.2-0.5-4.2-1.4c-1.7-0.3-1.9,1.8-2.8,2.6c-0.8,1-1.9,1.8-3,2.6c-1.6,0.9-2.4,1.9-0.1,0.7
	c1.5-0.4,2.5-1.2,4.1-1.5c1.5-0.4,2.9-0.8,4.7-0.9c1.7-0.2,3.3-0.4,5.3-0.4c1.6,0.7,4.3-1.3,4.2,0.6c0.2,1.7,0.1,3.7,0.1,5.5
	c0.1,1.9-0.2,3.5-0.1,5.5c0,1.9-2.4,1.4-3.6,2c-1.6,0.2-2.9,0.9-4.1,1.4c-1.1,0.7-2.5,1.2-3.4,2.2c-1.1,0.8-2,1.7-2.8,2.8
	c-0.8,1.1-1.3,2.4-2.1,3.5c-0.6,1.2-0.9,2.9-1.1,4.4c-0.3,1.6-0.2,3.5,0.2,4.9c0.4,1.6,0.6,3.2,1.1,4.5c0.6,1.3,1.3,2.5,1.8,3.7
	c0.8,1.1,1.5,2.4,2.2,3.3l2.8,2.8c0.9,1,2.3,1.5,4,1.6c0.8-0.4-2.4-0.8-2.6-1.9c-0.9-0.8-1.7-2-2.6-2.9c-0.7-1.1-1.6-2.1-2.1-3.5
	c-0.7-1.1-1.2-2.5-1.6-4c-0.3-1.5-0.6-3.1-1-4.5c0-1.9,0-3.8,0.2-5.3c0.3-1.5,0.8-3,1.6-4c0.9-0.9,1.5-2.2,2.7-2.9
	c0.9-0.9,2.2-1.5,3.4-2.2c1.4-0.4,2.9-1,4.4-1c2.4-0.5,3.3,0.8,2.3,2.6c-0.3,1.6-0.8,2.9-2.6,3c-1.4,0.5-2.8,1-3.9,1.8
	c-1.1,0.8-2.1,1.8-2.7,2.8c-0.5,1.3-1.1,2.6-1.4,4.2c-0.1,2,0.4,3.4,0.8,4.8c0.5,1.4,1.3,2.5,2.1,3.5c1,0.9,2.2,1.7,3.3,2.2
	c1,0.9,3.3,0.5,4.5,1.1c0.7,1.2,0.1,3.7,0.6,5c0,1.9,0,3.8,0.1,5.5C98.4,189.4,97.8,191.5,98.3,192.7 M99.5,126.3
	c-1.5-0.4-2.4-1.7-3.5-2.5c-0.9-1-2.1-2-2.9-3c-0.9-1-2.1-2-3-2.9c-0.7-1.1-2.6-1.6-2.6-3.1c0.7-1.3,1.9-2.3,2.5-3.5
	c1.2-2,2.6,0.4,3.4,0.9c1,1.1,2.1,2.1,2.9,3.1c1,1.1,2.2,2,2.9,3.1c1,0.3,1.8-2,2.8-2.5c1-0.9,2-2.1,3-2.9c1-0.5,1.9-3.2,3.1-1.9
	c1,1,1.8,2.4,2.6,3.4c1,1.7-1.5,2.3-2,3.3c-0.9,1.1-2.3,1.8-3,2.9c-1,1-2.2,1.9-3.1,2.8C101.6,124.3,100.6,125.5,99.5,126.3
	 M99.3,114.9c-1.1-1-2.4-1.9-3.3-2.9c-0.9-1-2-2-3-3.1c-0.4-1.6,2-2,2.9-2.8c2.1-0.5,1.8,2.3,3.2,2.3c1.5-0.3,1.8-3,3.4-2.3
	c1.1,0.9,3,1.2,3,2.8c-0.7,1.4-2.5,1.8-3.1,3.1C101.6,113.1,100.3,113.9,99.3,114.9 M84.7,112.2c-1.2-0.7-2.1-1.8-3.1-2.7
	c-1-0.9-1.9-2-2.8-3c-1.2-0.7-1.9-1.9-2.9-2.9c-0.8-1-2.1-1.8-2.7-3.1c0.4-1.6,1.9-1.9,2.7-3.1c0.9-1.1,2.2-1.7,3.1-2.8
	c1-1,2-1.9,2.9-2.9c1-0.7,1.8-2.6,3.4-1.9c1.2,0.8,2.5,1.4,3.4,2.5c0,1.6-1.9,1.9-2.6,3c-1,1-2,1.9-3.2,2.7
	c-0.8,0.8-2.7,2.3-0.9,3.1c1.3,0.7,1.9,2,3.1,2.7c1,1,2,2,2.9,2.9c1.5,0.7,1.9,2.5,0,3C86.8,110.5,85.8,111.6,84.7,112.2 M114.5,112
	c-1.8-0.2-2.3-1.6-3.6-2.2c-1.6-0.8-1.5-2.1,0-3c1.1-0.9,2.2-1.7,3.1-2.8c1.1-0.8,2.2-1.7,3.3-2.6c0.6-1.6-1.6-2-2.3-3
	c-0.7-1.2-1.9-2-2.8-3.1c-0.5-1.2-2.2-1.8-2.3-3.3c1.1-0.8,2.4-1.6,3.4-2.3c1.7-0.7,2.8,0.9,3.5,1.9c1.2,0.7,2,1.9,2.9,2.9
	c1,1,2.2,1.7,3,2.8c0.9,1.1,2.3,1.6,2.9,2.9c0.4,1.5-1.3,2.4-2.2,3.1c-0.9,1.1-1.8,2.2-2.8,3.1c-1.2,0.7-1.7,2.2-2.9,2.9
	C116.3,110,115.6,111.4,114.5,112 M91.3,106.8c-1.7-0.3-2.2-1.8-3.4-2.7c-1.1-0.8-1.9-2.2-2.9-3.1c-1.3-1.5,1.3-2.3,1.7-3.4
	c0.9-1.1,2.3-1.8,3-2.9c1.3-1.9,2.3,0.5,2.9,1.5c1.5,1.2,0.6,3.2-0.7,3.6c-0.4,1.9,2.4,1.8,2,3.5C93,104.6,92.2,105.9,91.3,106.8
	 M108.3,106.6c-1.8-0.2-2.2-2-3.1-3c-0.3-1.7,2.2-2.1,2.4-3.3c-1.3-0.3-3.3-1.7-2.2-3.1c0.7-1.3,1.4-2.6,2.7-3.4
	c1.2,0.9,2.3,2,3.1,3.1c0.9,1.2,2.1,2.2,2.9,3.2c-0.7,1.4-1.8,2.5-2.8,3.4C110.2,104.5,109.7,106,108.3,106.6 M99.5,104.8
	c-0.9-0.5-1.4-1.3-2.2-2c-0.6-0.7-1.6-1.2-1.9-2.2c0.3-1.1,1.3-1.5,1.9-2.3c0.8-0.6,1.3-1.6,2.3-1.8c1,0.5,1.5,1.4,2.2,2
	c0.6,0.7,1.7,1.5,1.8,2.1c-0.3,1.1-1.2,1.6-1.9,2.3C100.8,103.3,100.4,104.4,99.5,104.8 M96.7,95.2c-1.7-0.4-2.4-1.8-3.9-2.5
	c-0.6-1.4,1.5-2.4,2.3-3.3c1.1-1,2-2.2,3.3-3c1.2-1.7,2.6,0.8,3.5,1.4c1,1.2,2.2,2,3.2,3c1.9,1.5-0.8,2.4-1.6,3.3
	c-1.3,2-2.7,0.3-3.4-1C98.4,92,98.2,94.9,96.7,95.2 M91.3,90.5c-1.7-0.2-1.8-2.1-2.8-3.1c-1.5-1.3,0.1-2.6,1.2-3.3
	c0.8-1.1,1.8-2.1,2.9-2.9c1-0.9,2-1.9,2.9-2.9c1-0.9,2-1.9,2.9-2.9c1.9-0.8,2.6,1.2,3.7,1.7c1,1,2,2,2.9,2.9c1,1,2,2,2.9,2.8
	c0.9,1.1,2.2,1.8,2.7,3.1c-0.7,1.2-1.4,2.5-2.3,3.5c-1.2,1.6-2.6-0.6-3.4-1.3c-0.7-1.2-2.2-1.7-2.8-3.1c-0.9-1-1.7-2.1-2.6-3.3
	c-0.7,0.5-1.5,2.1-2.4,2.9c-0.7,1.3-1.9,2-2.9,2.9C93.2,88.6,92.3,89.8,91.3,90.5 M99.2,43c-2,0.1-2.9-0.9-4.3-1.5
	c-2.2-0.7,1.1-1.7,1.2-2.7c0.9-0.2,2.7-3,2.9-0.8C99.1,39.5,99.8,41.6,99.2,43 M102.1,42.7c-2.4,0.5-0.5-2.4-0.9-3.7
	c-0.1-2.4,1.3-2.1,2.1-0.8c0.7,1,2.5,1.4,2.3,2.8C104.8,42,103.4,42.5,102.1,42.7 M92.9,39.6c-0.8-1-1.5-2.3-1.9-3.6
	c-1.4-2.3,0.5-1.1,2.5-1.3c1.9-0.2,3.8,0.8,2.1,2.2L92.9,39.6 M107.1,39.2c-1.5-0.1-2.2-1.4-3.1-2.2c-0.9-1-2.7-1.8,0.1-1.6
	c1.5,0,3.8-0.5,4.4,0.1C108.4,37,108,38.5,107.1,39.2 M108.5,33.7c-1.9,0-3.4-0.4-5.3-0.5c-1.5,0.3,1.4-1.6,1.3-2.6
	c0.9-0.5,2.2-3.2,2.9-1C107.9,30.7,109.2,32.2,108.5,33.7 M93.8,33.4c-2.1,0.2-3.8-0.4-2.5-2.3c0.7-0.9,1.7-2.9,3.1-2
	c1.1,0.8,1.9,2.1,2.6,3.2C98.5,33,94.8,33.3,93.8,33.4 M101.3,31.3c0.3-0.7-0.5-2.7-0.2-4.4c-0.4-2.7,2-0.8,2.7-0.4
	c1.7,0.4,2.1,1.8,0.4,2.6C103.4,29.9,102.1,30.6,101.3,31.3 M98.9,30.5c-1.2-0.5-2-1.3-2.8-2.1c-1.3-1.2-1.2-1.5,0.5-2
	c0.8,0,2.8-2.1,2.9-0.1C99.5,28,99.4,29.7,98.9,30.5z"/>
</svg>
