<?xml version="1.0" encoding="utf-8"?>
<svg version="1.1" id="Layer_1" xmlns="http://www.w3.org/2000/svg" xmlns:xlink="http://www.w3.org/1999/xlink" x="0px" y="0px"
	 viewBox="0 0 12.9 12.9" style="enable-background:new 0 0 12.9 12.9;" xml:space="preserve">
<g>
	<path class="st0" d="M9.2,0H3.7C1.7,0,0,1.7,0,3.7v5.5c0,2,1.7,3.7,3.7,3.7h5.5c2,0,3.7-1.7,3.7-3.7V3.7C12.9,1.7,11.2,0,9.2,0z
		 M11.8,8.7c0,1.7-1.4,3.1-3.1,3.1H4.2c-1.7,0-3.1-1.4-3.1-3.1V4.2c0-1.7,1.4-3.1,3.1-3.1h4.6c1.7,0,3.1,1.4,3.1,3.1V8.7z"/>
	<path class="st0" d="M6.5,3.2c-1.8,0-3.3,1.5-3.3,3.3s1.5,3.3,3.3,3.3s3.3-1.5,3.3-3.3S8.3,3.2,6.5,3.2z M6.5,8.6
		c-1.2,0-2.1-0.9-2.1-2.1s0.9-2.1,2.1-2.1s2.1,0.9,2.1,2.1S7.6,8.6,6.5,8.6z"/>
	<circle class="st0" cx="9.9" cy="3.1" r="0.8"/>
</g>
</svg>
